<svg t="1699172364076" class="icon" viewBox="0 0 1280 1024" version="1.1" xmlns="http://www.w3.org/2000/svg" p-id="5921" data-spm-anchor-id="a313x.search_index.0.i32.7f803a81fZxL75" xmlns:xlink="http://www.w3.org/1999/xlink" width="250" height="200"><path d="M640 576c248.4 0 352-101.8 352-101.8 0-16.6-1.2-33-3.4-49C1162.2 471 1280 550 1280 640c0 141.4-286.6 256-640 256S0 781.4 0 640c0-90 116.02-169 291.4-214.8-2.2 16-3.4 32.4-3.4 49 0 0 103.6 101.8 352 101.8z m0 128c-26.6 0-48 21.4-48 48s21.4 48 48 48 48-21.4 48-48-21.4-48-48-48z m-384 0c26.6 0 48-21.4 48-48s-21.4-48-48-48-48 21.4-48 48 21.4 48 48 48z m768-96c-26.6 0-48 21.4-48 48s21.4 48 48 48 48-21.4 48-48-21.4-48-48-48z" p-id="5922" data-spm-anchor-id="a313x.search_index.0.i30.7f803a81fZxL75" class="" fill="#707070"></path><path d="M992 474.2S888.4 576 640 576s-352-101.8-352-101.8C288 283 445.6 128 640 128s352 155 352 346.2z" opacity=".4" p-id="5923" data-spm-anchor-id="a313x.search_index.0.i29.7f803a81fZxL75" class="" fill="#8a8a8a"></path></svg>